<svg width="80px" height="80px" viewBox="0 0 80 80" version="1.1" xmlns="http://www.w3.org/2000/svg" xmlns:xlink="http://www.w3.org/1999/xlink">
    <!-- Generator: sketchtool 56.3 (101010) - https://sketch.com -->
    <title>A6E86CA8-6E51-4D85-A1CB-260274C73BDB</title>
    <desc>Created with sketchtool.</desc>
    <g id="Home" stroke="none" stroke-width="1" fill="none" fill-rule="evenodd">
        <g id="Home-XLarge" transform="translate(-392.000000, -5968.000000)" fill="#000000">
            <g id="Logo" transform="translate(392.000000, 5968.000000)">
                <path d="M79,79 L1,79 L1,0.999516848 C35.6283117,0.999516848 61.6283117,0.999516848 79,0.999516848 L79,79 Z M79.9982595,1.01405073 C79.9982595,0.892848501 80.0028086,0.769713666 79.9844743,0.650720138 C79.9254738,0.266959105 79.6515627,0.0252448722 79.2622699,0.00260573219 C79.1853487,-0.00181166099 79.1078761,0.00122529682 79.0306792,0.00122529682 C53.0045769,0.00122529682 26.9784747,0.00122529682 0.952372374,0.00136334036 C0.852981386,0.00136334036 0.75290114,-0.00415840111 0.654888668,0.00702312537 C0.289719837,0.048850317 0.0298696119,0.321210215 0.00409136677,0.685645152 C-0.00211195425,0.773578885 0.00119648362,0.862202836 0.00119648362,0.950550699 L0.00119648362,79.0444149 C0.00119648362,79.1326247 -0.00238765741,79.2213867 0.00285070256,79.3093205 C0.0261476193,79.697913 0.290271243,79.9693066 0.674325741,79.9949827 C0.806111849,80.0038175 0.939000771,79.9982958 1.07133829,79.9982958 C14.051305,79.9984338 27.0314097,79.9984338 40.0112386,79.9984338 L78.9180545,79.9984338 C79.0283357,79.9984338 79.1387549,80.0011947 79.2488983,79.9973295 C79.6734811,79.9821447 79.9491843,79.7278685 79.9935725,79.3065596 C80.0039114,79.2081346 79.998673,79.1079149 79.998673,79.0086616 C79.9988109,53.3437453 79.9988109,26.678967 79.9982595,1.01405073 Z" id="Fill-1"></path>
                <path d="M2.6754386,77.3245614 L77.3245614,77.3245614 L77.3245614,2.6754386 L2.6754386,2.6754386 L2.6754386,77.3245614 Z M75.8376071,1.66666667 C63.8984288,1.66666667 51.9592505,1.66666667 40.0200722,1.66666667 L18.9742677,1.66666667 C13.3640414,1.66666667 7.75395116,1.66666667 2.14399713,1.66666667 C1.67937196,1.66666667 1.66915892,1.67889627 1.66779718,2.15122156 L1.66779718,2.18438658 C1.66779718,27.3885648 1.66779718,52.592743 1.66793335,77.7969211 C1.66793335,77.8743062 1.66425666,77.9518295 1.66943127,78.0289382 C1.68454656,78.2590205 1.73547558,78.3120846 1.97064782,78.3282525 C2.10069384,78.3370966 2.23182926,78.3317072 2.36255615,78.3317072 C26.7636842,78.3318454 51.1648123,78.3319836 75.5660765,78.3308781 C76.3609232,78.3308781 77.15577,78.3176121 77.9506167,78.3084917 C78.2802936,78.3048988 78.3245501,78.2610934 78.3268651,77.9201845 C78.3316312,77.2349121 78.3333333,76.5495015 78.3333333,75.8640909 C78.3333333,51.7985787 78.3333333,27.7330665 78.3333333,3.66741612 C78.3333333,3.13677566 78.331495,2.60627339 78.3271374,2.07563293 C78.3242778,1.72062893 78.2815192,1.67848171 77.9288289,1.67613252 C77.231755,1.67157233 76.5346811,1.66666667 75.8376071,1.66666667 Z" id="Fill-4"></path>
                <path d="M49.7524565,53.5617807 C50.2006498,53.6896817 50.5914398,53.9190499 50.9368378,54.2216619 C51.5911805,54.7942564 52.068285,55.4899334 52.3807214,56.2946498 C52.4240184,56.4056166 52.4501362,56.523192 52.5008355,56.6932219 C52.0428655,56.6932219 51.629589,56.7217208 51.2221787,56.6857874 C50.7467501,56.6439338 50.2672713,56.5810159 49.8058095,56.464542 C48.9347027,56.244811 48.3737976,55.6832305 48.1471171,54.821654 C48.0584282,54.4844854 48.0103825,54.1368534 47.9416661,53.7833014 C48.5458681,53.4729796 49.1310753,53.3845916 49.7524565,53.5617807 M48.581204,48.8908461 C48.8285553,47.7568087 49.2469995,46.6785301 49.723685,45.623381 C49.9681033,45.0823142 50.2562375,44.559696 50.5419974,44.0380416 C50.628312,43.8808156 50.7725887,43.7545666 50.9204966,43.5777906 C51.0698013,43.7606244 51.1999715,43.8951339 51.3010909,44.0482296 C52.1731753,45.3693688 52.0078089,46.9757726 50.8875351,48.1003104 C50.2484161,48.741743 49.4618082,49.1372862 48.523242,49.4755562 C48.5464268,49.2304929 48.5450301,49.0566081 48.581204,48.8908461 M60.0032204,71.3239154 C59.0238711,71.3793989 58.098713,71.2203831 57.252886,70.7159381 C56.2238151,70.1021784 55.6240824,69.1829156 55.3105287,68.0027567 C55.9240884,67.9680623 56.4710267,68.0564503 57.0077693,68.2070679 C57.9812525,68.4802171 58.8022187,68.9823216 59.402091,69.8025954 C59.7448353,70.2711069 59.9738902,70.8414986 60.0032204,71.3239154 M58.6290308,57.0294267 C58.6666014,57.082432 58.7114347,57.1314447 58.7400666,57.1883049 C59.2455236,58.1936152 59.4395219,59.2461484 59.2113051,60.3562302 C59.0473353,61.1532367 58.6301482,61.8005894 57.9760848,62.2960854 C57.457918,62.6888751 56.8727108,62.9388948 56.2044013,63.1061711 C56.3986789,61.4544719 57.9765038,57.5170752 58.6290308,57.0294267 M19.5482206,46.8478716 C18.4251534,48.2388125 17.0703777,49.3809728 15.5838954,50.3765081 C14.6105519,51.0286795 13.5919561,51.5968684 12.467213,51.9599201 C11.9438785,52.1289863 11.4104879,52.2416053 10.8550298,52.2100774 C10.0538965,52.1645067 9.48237667,51.7927814 9.18251033,51.0475411 C9.12524661,50.9051841 9.08125132,50.7558056 9.04703276,50.6061517 C8.89493474,49.9411765 8.92887397,49.271245 9.01532821,48.6028279 C9.19033171,47.2530521 9.58209933,45.9566947 10.026801,44.6738295 C10.0689806,44.5525369 10.1044562,44.4290415 10.1430044,44.3065098 C10.0446784,44.3381753 9.99635344,44.3937964 9.95110113,44.4520334 C9.52148359,45.0057664 9.16644855,45.6043817 8.88138698,46.240858 C7.89966342,48.4330734 7.39672039,50.7120246 7.64365271,53.1184639 C7.72186657,53.8813267 7.91977556,54.6141762 8.33961636,55.2710285 C8.83250332,56.0421519 9.5374057,56.4718388 10.4691283,56.5073592 C11.8447145,56.5595384 13.1538189,56.2627089 14.4133413,55.739127 C16.0737097,55.0492324 17.5075373,54.0286401 18.7630094,52.7651872 C19.8648471,51.6564821 20.8288328,50.4498895 21.3682291,48.9636768 C21.3747935,48.9453658 21.3970006,48.932562 21.4277275,48.9007588 C21.4613874,49.0155806 21.4949076,49.1173232 21.5208858,49.2207179 C21.6856936,49.8741283 21.8984073,50.511293 22.1967373,51.1178935 C22.9924236,52.7355868 24.249432,53.7581067 26.0874577,54.0067496 C27.580225,54.2087203 29.0742493,54.1496573 30.5632456,53.9604904 C32.116489,53.7633384 33.6392848,53.4157064 35.1518849,53.0222283 C37.0744094,52.522189 38.9688608,51.9322472 40.8529767,51.3080241 C40.9746272,51.267685 41.098652,51.2343674 41.2390179,51.1926516 C41.2587111,51.5322984 41.2633201,51.8270627 41.2946056,52.1190736 C41.4694695,53.7490201 42.7243829,54.6388202 44.1104441,54.5156002 C44.7103165,54.4621819 45.3061384,54.3653956 45.9040554,54.2904999 C46.0879977,54.267508 46.2727779,54.2516752 46.4516921,54.233089 C46.4751563,54.3004125 46.4931734,54.3307013 46.4951287,54.3619537 C46.5009948,54.4606674 46.5016931,54.5597942 46.5025311,54.6589209 C46.5099335,55.4104943 46.5846557,56.1536695 46.7959727,56.8788091 C47.127404,58.0153247 47.7422207,58.9409207 48.8359577,59.4987839 C49.6641866,59.9213116 50.5581989,60.0236049 51.47372,59.9736285 C52.1483145,59.9370067 52.2064162,59.9093338 52.5398028,59.3020449 C53.5673373,57.430064 53.9265624,55.4362397 53.5963882,53.3302096 C53.5340964,52.9320505 53.420826,52.5416013 53.3247347,52.120175 C53.5412195,52.0695102 53.7452739,52.0238018 53.9482109,51.9736877 C55.5507569,51.5775938 57.1526046,51.179297 58.755849,50.7854059 C58.9784792,50.7307485 59.206277,50.6957788 59.4437119,50.6492443 C59.4696901,51.114727 59.4967856,51.5411096 59.5136854,51.9679053 C59.5157804,52.0262799 59.4727628,52.0893356 59.4421756,52.1456451 C59.1624214,52.659039 58.8548733,53.1594913 58.6044493,53.6863775 C57.6185357,55.7612928 56.7724294,57.8936191 55.9813521,60.0467345 C55.5821821,61.1328607 55.2198844,62.2323414 54.8416645,63.3259021 C54.7952949,63.4599985 54.7739257,63.5989136 54.5874695,63.6329196 C54.0364808,63.7336985 53.4882855,63.8157534 52.9252854,63.717728 C51.9977528,63.5559587 51.5202293,62.9837772 51.5605933,62.0577682 C51.5667386,61.918027 51.5822417,61.7789743 51.5981638,61.578931 C51.4714853,61.681775 51.3865674,61.7462074 51.3065379,61.8161468 C50.7112746,62.3357361 50.0843067,62.8129212 49.3925331,63.2028197 C48.9539768,63.4499482 48.4983811,63.6554985 47.9975331,63.7474661 C47.2458421,63.8856928 46.6719479,63.6100654 46.3497348,62.9288444 C46.2423304,62.702092 46.1852063,62.451384 46.1138362,62.2092118 C46.0751483,62.0774559 46.0548965,61.9403306 46.0208176,61.779938 C45.943302,61.824958 45.8949771,61.8489137 45.8508421,61.878927 C45.5013938,62.1162805 45.1583701,62.363409 44.8026367,62.5911251 C44.0421467,63.0776722 43.2581924,63.5269091 42.3918343,63.8033625 C42.0238102,63.9206625 41.6338582,64.0094635 41.2492137,64.0306657 C40.4800642,64.0730699 40.006172,63.6962506 39.8172018,62.9616113 C39.6829812,62.4398192 39.7212501,61.9115563 39.7814469,61.3856338 C39.7913633,61.3005501 39.8635714,61.2124374 39.9276788,61.1447008 C40.5314619,60.505884 41.0905513,59.8365032 41.4729612,59.039772 C41.7313462,58.5010458 41.6817642,57.9938473 41.3232375,57.5158361 C40.8130317,56.8347528 40.1155318,56.39061 39.360768,55.9800601 C38.4568393,56.9190105 37.6421582,57.8981624 36.9499656,59.0176062 C36.5982826,57.7512621 35.6120897,57.121119 34.6589979,56.42971 C33.7954332,57.3463569 33.0021212,58.2601127 32.3653766,59.3517459 C33.5295061,59.7427458 34.4246357,60.4480601 35.1915505,61.3558958 C35.9210344,60.69629 36.6220261,60.0704148 36.9221717,59.1101245 C38.0681444,59.509798 38.9868779,60.1688531 39.7501613,61.0563128 C39.702814,61.1113832 39.6847969,61.1404328 39.6593774,61.1606712 C38.3168924,62.2326168 36.8920035,63.1756975 35.2908542,63.8357164 C34.5663983,64.134198 33.818199,64.3531029 33.0251664,64.3816018 C32.2745927,64.4085863 31.5832381,64.242136 30.9934218,63.7602699 C30.5984418,63.4374197 30.3196653,63.0279712 30.1114209,62.5704737 C29.7924201,61.8694274 29.6162992,61.128042 29.5704883,60.3668313 C29.5214649,59.5549557 29.5341747,58.7395006 29.5107105,57.925973 C29.5067998,57.7889854 29.4924141,57.6303826 29.4210439,57.5210678 C29.1400327,57.0913809 28.7859754,56.7253004 28.3351283,56.4615131 C27.9580258,56.2406808 27.5501964,56.1255836 27.1158302,56.2212684 C26.7473871,56.3024973 26.3741952,56.3925374 26.0279593,56.5364089 C24.8858973,57.0111158 23.9321072,57.7548417 23.1094651,58.6555183 C21.0651504,60.8935797 20.1859429,63.5536182 20.2254688,66.5356809 C20.2304968,66.9214492 20.3913939,67.2533861 20.700618,67.4802762 C20.948109,67.6618708 21.2222765,67.8357556 21.5125057,67.9266218 C22.0532987,68.0958257 22.6143434,68.2014232 23.1665891,68.3352443 C23.5132441,68.4192266 23.8619941,68.4957745 24.2036211,68.5957273 C24.398178,68.6527252 24.5656395,68.7641051 24.6145231,69.033124 C24.5782096,69.0559783 24.5323986,69.0877814 24.4837943,69.1147659 C24.2403536,69.2491377 24.0034774,69.3975525 23.751098,69.5134757 C20.6314825,70.9462701 17.3917529,71.9705797 13.9448962,72.2663078 C13.4584339,72.3081613 12.9531165,72.3361096 12.4767103,72.2551561 C11.3611852,72.0657139 10.5146599,71.4414908 9.9159049,70.4986853 C9.33041832,69.5763936 9.11393354,68.546577 9.05680949,67.4787617 C8.97105358,65.8793793 9.2382377,64.3185462 9.62455828,62.7736835 C10.034343,61.1356142 10.5951084,59.5460068 11.2298977,57.9807681 C11.273055,57.8739315 11.3058769,57.7632399 11.3434474,57.6544759 C11.3231956,57.6393315 11.3026645,57.6244625 11.282273,57.6093181 C11.1775223,57.6821488 11.0525198,57.7379075 10.9716523,57.8308389 C10.7473461,58.0891191 10.5180119,58.3482254 10.3325333,58.6332147 C9.87847398,59.3308192 9.54676343,60.0902401 9.24969044,60.8634287 C8.37872329,63.1309528 7.82787427,65.4735104 7.59407071,67.8858697 C7.45566012,69.3150845 7.45035275,70.7447124 7.71208983,72.1644276 C7.87703727,73.0593217 8.14952876,73.9177318 8.64604708,74.6935362 C9.34354707,75.7833796 10.3404944,76.4194428 11.6360511,76.6059938 C12.5334154,76.7351339 13.420584,76.6395868 14.3031436,76.4926865 C16.5281881,76.1222003 18.661471,75.4493775 20.7253391,74.5577876 C22.192687,73.9239272 23.5962067,73.1781361 24.8765396,72.2208747 C25.6546278,71.6393312 26.3677705,70.9918409 26.9438994,70.209015 C27.5393024,69.4000307 27.9328857,68.5168389 27.9862387,67.5010652 C28.0113788,67.0220903 27.8858177,66.6024538 27.5487998,66.2630824 C27.3554998,66.0684085 27.14111,65.874836 26.8994851,65.7498262 C26.4265706,65.5057266 25.9416447,65.2697499 25.4370256,65.1030242 C24.6015341,64.8269838 23.7445337,64.6145497 22.900662,64.3623272 C22.602751,64.2733885 22.3058177,64.1672403 22.0280189,64.0308033 C21.7009173,63.8699977 21.6738218,63.7460893 21.8449146,63.4246158 C22.2588894,62.6466086 22.803593,61.9656629 23.4541647,61.3674606 C23.848586,61.0049596 24.2846283,60.6986305 24.7776549,60.4776605 C25.4821383,60.1619693 26.2067338,60.0775739 26.9659669,60.2675668 C27.2342683,60.3346151 27.3705839,60.4816531 27.4070371,60.7359407 C27.4397194,60.9647582 27.4700272,61.1941265 27.4897204,61.4240455 C27.5587162,62.2356456 27.6056445,63.0493109 27.6936351,63.858846 C27.7784133,64.6387807 27.9595622,65.4009551 28.3031445,66.1146677 C28.9622359,67.4838557 30.0792973,68.1561278 31.6036295,68.2047274 C32.4188693,68.2308858 33.2038012,68.0791669 33.972392,67.8303863 C35.3965825,67.3691716 36.6894855,66.6571112 37.9129737,65.8141209 C37.9997073,65.7546448 38.0893739,65.6995744 38.1997113,65.6281206 C38.2329522,65.7602896 38.2571147,65.855286 38.2808582,65.9502825 C38.3934302,66.4015845 38.5381259,66.8393943 38.8089414,67.2272276 C39.1974966,67.7834388 39.7289318,68.0937605 40.4184708,68.0797176 C40.7496227,68.0731091 41.0885959,68.0329077 41.4081554,67.949063 C42.2731168,67.7221729 43.0262045,67.2683927 43.744515,66.7551365 C43.8325056,66.6923563 43.9223119,66.6321918 44.0044364,66.5754693 C44.0319509,66.5930918 44.0464764,66.5970844 44.0498284,66.605345 C44.0939633,66.7176886 44.1347463,66.8311337 44.1799986,66.9429266 C44.4153385,67.5250209 44.842861,67.8615011 45.4776503,67.9508528 C45.8385513,68.0015176 46.190793,67.9640697 46.5423364,67.8971592 C47.2951447,67.7538384 47.9934827,67.4615522 48.6686359,67.114471 C49.0826107,66.9017615 49.4855517,66.6677122 49.8855597,66.4475683 C49.9095826,66.4603722 49.9218733,66.4636764 49.9288567,66.4715239 C49.9586059,66.5040155 49.9887741,66.5363693 50.0151713,66.5714767 C50.4331964,67.1309921 50.9890734,67.5023043 51.6470475,67.7334624 C52.2544619,67.9467225 52.8821281,68.0267123 53.525018,68.0075753 C53.6758591,68.003032 53.8269794,68.0068869 53.9966755,68.0068869 C53.9815914,68.1130352 53.9741891,68.1776052 53.9631553,68.2416246 C53.8864778,68.6973322 53.7888501,69.1505617 53.7360558,69.6088852 C53.6445735,70.4020368 53.674183,71.1929855 53.8961149,71.9670002 C54.262463,73.244496 55.0976752,74.0454951 56.4115283,74.3600848 C56.9824895,74.4970725 57.561691,74.5274989 58.1422892,74.4855077 C59.4370079,74.3916126 60.3927533,73.7691793 61.0096651,72.6442285 C61.3600911,72.0047234 61.5290889,71.3124883 61.6130291,70.5958846 C61.7526967,69.4001683 61.6121911,68.2229006 61.3744768,67.0521037 C61.3248949,66.8082795 61.2700055,66.565419 61.2079931,66.2776761 C61.7909656,66.1874983 62.339161,66.0941539 62.8898703,66.0191205 C64.2171315,65.8384895 65.5491414,65.6877343 66.8726316,65.4843868 C68.033828,65.3059587 69.1654149,65.0034844 70.2363861,64.5099159 C71.3943702,63.9762836 72.3720434,63.2324201 73.063817,62.1557935 C73.7898092,61.0260241 74.0780831,59.7706941 74.1495929,58.4545113 C74.2093706,57.3497988 74.1064356,56.2549991 73.9304544,55.1651557 C73.910482,55.0402835 73.8773808,54.9176142 73.8465142,54.7762209 C73.5576816,54.8527688 73.3777897,55.0193567 73.2101886,55.1922778 C72.8135326,55.6013133 72.4999789,56.0667959 72.2615663,56.5834941 C72.0140753,57.1200175 71.925107,57.675678 72.0157513,58.2580476 C72.0428468,58.4322077 72.0802777,58.6045781 72.1069543,58.7787383 C72.1467595,59.039772 72.1854474,59.3012188 72.2168727,59.563354 C72.2512309,59.8520606 72.1551396,60.0815665 71.8860001,60.2269524 C71.6510792,60.353752 71.424259,60.4966597 71.1834721,60.6109309 C70.3449078,61.0089522 69.4596946,61.2807247 68.5641459,61.5183535 C65.9043161,62.2242185 63.191692,62.6354568 60.4549054,62.9068163 C60.2134201,62.9307719 59.9708175,62.9446772 59.6931583,62.9660169 C59.7407849,62.8642744 59.7734671,62.7977768 59.803356,62.7300402 C59.957968,62.3775896 60.1403739,62.0339503 60.2602087,61.6703479 C60.4861909,60.9862357 60.5733435,60.2734869 60.6064447,59.5567455 C60.6828429,57.9117924 60.5646841,56.277991 60.2902373,54.654653 C60.2266885,54.2785221 60.1634191,53.9022535 60.0900936,53.4669219 C60.205459,53.5521433 60.2752928,53.6008807 60.3420539,53.6533352 C60.6779545,53.9171225 61.0672081,54.0597548 61.4892836,54.0532841 C61.888314,54.0472263 62.2944673,54.0179013 62.6831623,53.934332 C63.6877913,53.718456 64.5893457,53.2546254 65.4628268,52.7342101 C65.5646445,52.6734949 65.6688366,52.6164971 65.7619948,52.5633541 C65.7938391,52.5918531 65.8072471,52.5981862 65.8079455,52.605483 C65.8168842,52.7146601 65.8230296,52.8239748 65.8318286,52.9330143 C65.8742876,53.4556324 66.1773663,53.8281838 66.6990248,53.9297887 C66.9567115,53.9799028 67.2352087,53.9903661 67.4948508,53.9540197 C68.3489181,53.8341038 69.0811954,53.4325029 69.7342811,52.8987329 C71.6949348,51.2963217 72.5378288,49.1872626 72.521348,46.7235501 C72.510873,45.1375223 72.0784621,43.6361653 71.4248177,42.1942842 C71.3829174,42.1019036 71.3290057,42.0147547 71.2544232,41.8763903 C70.71796,42.9450316 70.2394588,43.9598416 69.9101226,45.039084 C69.7740863,45.4851543 69.8074669,45.9016243 70.0053759,46.3209854 C70.2218607,46.7798596 70.4330381,47.2423134 70.6173993,47.7141291 C70.7120939,47.957265 70.7632123,48.2218783 70.7984085,48.4815353 C70.8440798,48.8174648 70.7091609,49.0907517 70.3999368,49.2536225 C70.0261863,49.4503615 69.6542515,49.6556365 69.2627632,49.8120364 C69.0091269,49.913366 68.7243446,49.9655452 68.4496185,49.9838561 C67.9483515,50.017036 67.6121715,49.7568283 67.5130075,49.2720711 C67.4651016,49.0378841 67.4725039,48.7921324 67.4610512,48.5513371 C67.4565818,48.457855 67.4694313,48.3632716 67.4769733,48.2178857 C67.3458254,48.3050346 67.2569968,48.364786 67.1676096,48.4232984 C66.6282133,48.7764374 66.1015268,49.1503654 65.5459291,49.4767953 C64.8911674,49.8617375 64.1949244,50.1588423 63.4266129,50.2589328 C62.5242205,50.3763705 61.79334,50.0089131 61.3697282,49.2170006 C61.1209802,48.7523441 60.9910893,48.2525801 60.9381553,47.7345052 C60.895836,47.3210641 60.8787965,46.9051448 60.848349,46.4590745 C58.0752488,47.4072493 55.3056403,48.3113677 52.3719223,48.8350873 C52.4189903,48.6766222 52.4470635,48.5736406 52.4800251,48.472311 C52.9213747,47.1171659 53.1083896,45.7238845 53.0836684,44.3058215 C53.0590869,42.9130908 52.8435798,41.5443157 52.4573989,40.2028005 C52.4310017,40.111246 52.420387,40.0152858 52.4006939,39.9123041 C53.3877248,39.5963376 53.9484902,38.871198 54.4047843,38.0396348 C54.4419358,37.9718982 54.4762941,37.9026472 54.5102333,37.8333961 C54.9831478,36.87049 55.2419519,35.8485209 55.3443282,34.7891039 C55.4775711,33.4120682 55.3648593,32.0592636 54.8260217,30.7671741 C54.6823038,30.4224334 54.6486439,30.0811345 54.7485062,29.7361184 C54.8771401,29.2928016 55.0202994,28.8507238 55.1985152,28.4248919 C55.318769,28.1382504 55.3305011,27.8701952 55.2208621,27.5940171 C55.1522853,27.4208206 55.0538196,27.2593267 54.969181,27.0924633 C54.6948739,26.5518096 54.3975215,26.0210685 54.1536619,25.4674732 C53.9318698,24.9638543 53.7685983,24.4350407 53.5787901,23.9175165 C53.5391245,23.8093031 53.4965259,23.7021912 53.4329771,23.5365669 C53.3551822,23.6791993 53.3050416,23.7602905 53.265376,23.845925 C52.3647993,25.7972073 52.1302974,27.8343994 52.4555832,29.9442845 C52.6495815,31.2027811 53.0413492,32.4059319 53.4907995,33.5942136 C53.6194333,33.9341357 53.7466705,34.2766737 53.8405272,34.6267838 C54.0022622,35.2299425 53.6779541,35.8746793 53.0913502,36.1701321 C52.5093553,36.463382 51.8548729,36.3248799 51.4312611,35.8202973 C51.1591886,35.4962079 51.0336274,35.1115411 50.9501062,34.708288 C50.9355807,34.6379356 50.9100216,34.5699236 50.874546,34.4501455 C50.7608566,34.5713004 50.679989,34.6574856 50.5991215,34.7439461 C50.1214583,35.2544488 49.6338787,35.756691 49.0489508,36.1498937 C48.829952,36.2970694 48.5893047,36.42855 48.3397187,36.5129454 C47.9397107,36.6484186 47.6359337,36.4872 47.4873274,36.0960624 C47.437047,35.9637557 47.3984988,35.8201596 47.3916551,35.6798677 C47.3771296,35.3882699 47.3871857,35.0952953 47.3871857,34.8017701 C47.3209832,34.8049366 47.2947257,34.7983282 47.2788036,34.8082408 C47.1938857,34.8606954 47.1102248,34.9154904 47.0283796,34.972626 C46.0414884,35.6592163 45.0318313,36.3086342 43.9225912,36.791877 C43.4098714,37.0153252 42.8820676,37.1893477 42.3185088,37.2408385 C41.4902799,37.3165603 40.8966926,36.8897647 40.7638688,36.080505 C40.7127504,35.7697702 40.7381699,35.4466446 40.7296502,35.1291636 C40.7275552,35.0475218 40.7293709,34.9658799 40.7293709,34.8757021 C40.6755988,34.8879552 40.6412406,34.8904334 40.6116311,34.9035126 C40.5096737,34.9485327 40.4092527,34.9963063 40.3088317,35.0446306 C38.0400712,36.1380536 35.7377905,37.1549287 33.3437482,37.9563408 C31.9564299,38.4208597 30.5499772,38.8140625 29.0850037,38.95876 C28.3926714,39.027185 27.6990821,39.0358585 27.0229512,38.845728 C26.8366347,38.7932734 26.6260159,38.7066752 26.5050638,38.5688615 C26.1174862,38.1273345 26.0968154,37.5998976 26.2107841,37.0266146 C26.3929107,37.0266146 26.5479417,37.027716 26.7031124,37.026477 C28.3599892,37.0131224 30.0047148,36.8743449 31.6283507,36.5397922 C33.1459788,36.2271299 34.6039689,35.7506332 35.9389118,34.9543151 C37.3383812,34.1191723 38.4437106,33.0123947 39.1592277,31.5476595 C39.7113337,30.417477 39.9338242,29.2158407 40.005753,27.9715247 C40.0660894,26.9242232 39.6866126,26.0699435 38.9192788,25.3818387 C38.4748565,24.9834043 38.0018023,24.6083748 37.504865,24.2763002 C36.309869,23.4773662 35.0067703,22.8640195 33.7278341,22.2108845 C32.4384228,21.5522424 31.1403521,20.9054404 29.9516412,20.0781452 C29.3421317,19.654103 28.7708913,19.1741644 28.2014665,18.697117 C27.8926614,18.4384237 27.8682196,18.2241998 28.0718549,17.8789083 C28.1939244,17.6719813 28.3495141,17.4789595 28.5164169,17.3041109 C29.024388,16.771167 29.6234223,16.3454728 30.2367027,15.9408429 C31.8833837,14.8544414 33.6290891,13.941374 35.409851,13.0912245 C37.8443969,11.9291012 40.3314579,10.8911616 42.9051127,10.0644171 C43.9565304,9.72656015 45.0184232,9.42105705 46.1202609,9.28572151 C46.6648249,9.21881096 47.2137185,9.19774653 47.7533941,9.32592291 C48.2499125,9.44404894 48.4596932,9.70769853 48.4014518,10.2091146 C48.3598309,10.5665216 48.2575942,10.9196606 48.1547988,11.2667418 C47.9260233,12.0377276 47.678672,12.8030686 47.4422147,13.5717139 C47.4086945,13.6806156 47.3931914,13.7948867 47.3635819,13.9336641 C47.4234993,13.9024117 47.4475221,13.89718 47.4591145,13.8825863 C48.3250536,12.7928806 49.0685043,11.6319963 49.529547,10.3158135 C49.7830437,9.59218835 49.9181023,8.84956386 49.822849,8.07596227 C49.6380687,6.57556895 48.3446071,5.66098711 46.8497448,5.98507647 C44.589085,6.4753408 42.3787055,7.1357727 40.1963993,7.89133872 C40.0510053,7.94172815 39.904913,7.99005243 39.7100767,8.05599925 C39.7398259,7.81726902 39.7681784,7.62466026 39.7868939,7.43122545 C39.8401072,6.8818981 39.8792142,6.33105633 39.7356359,5.78943884 C39.559934,5.12597807 39.1152324,4.87678447 38.4434312,5.05672703 C38.2389579,5.11152209 38.0364399,5.17526609 37.8368549,5.24493016 C36.6035899,5.67503006 35.4069179,6.19076446 34.2311961,6.75358405 C32.4902395,7.58679936 30.7985855,8.50454774 29.2461801,9.6527658 C28.5475628,10.1696016 27.887773,10.7296677 27.3448851,11.4103379 C27.0391527,11.7937657 26.7774156,12.2033518 26.6554858,12.6828774 C26.6194515,12.8239954 26.6142838,12.9728232 26.585652,13.1884238 C26.7324426,13.0905362 26.8145672,13.0404221 26.8912447,12.9836996 C27.1772839,12.7723669 27.4573175,12.5529113 27.7472674,12.3469479 C30.2422894,10.5758835 32.9357791,9.15272647 35.7474276,7.9420035 C36.5035879,7.6163997 37.2811175,7.33760575 38.0559933,7.05674666 C38.4202464,6.92471535 38.5812832,7.00208927 38.7727674,7.33664202 C38.9386926,7.62645005 39.0284988,7.94090209 39.0655107,8.29170061 C38.9259828,8.34814778 38.7944159,8.40376889 38.6610334,8.45512205 C36.3887812,9.33032854 34.1814744,10.3355012 32.1163493,11.6252502 C30.7520762,12.4771895 29.4746763,13.4362407 28.3949061,14.6294788 C27.3668129,15.765719 26.5993394,17.0367441 26.3146968,18.560267 C26.1099441,19.6571319 26.2258682,20.6917672 26.8838423,21.6236962 C27.1380373,21.983719 27.4170932,22.331764 27.7212892,22.6517231 C28.5598535,23.5339511 29.5551248,24.2263238 30.5829387,24.8747779 C32.1280814,25.8495242 33.765684,26.6600229 35.3869455,27.500122 C36.0289974,27.832885 36.660714,28.1862993 37.2878215,28.5461845 C37.4980213,28.6667887 37.6931369,28.8219496 37.8710734,28.9864724 C38.1181454,29.2151523 38.1388162,29.3814649 37.9439799,29.6569546 C37.8182791,29.8348321 37.6629687,30.0055503 37.4862892,30.1322123 C37.1621207,30.3646094 36.8246838,30.5854418 36.4707661,30.7699276 C35.1514659,31.4574817 33.7487842,31.9350798 32.3132806,32.3218118 C31.1913308,32.6240107 30.0596042,32.8767839 28.8911451,32.9252458 C27.5735209,32.9797655 26.5982221,32.4583864 26.0280989,31.2651483 C25.9142698,31.0269688 25.8158042,30.7797026 25.7328416,30.5294076 C25.4366066,29.6343758 25.2995927,28.706577 25.2181665,27.774235 C25.0656495,26.0305681 24.9504237,24.2837347 24.8071248,22.5391041 C24.6736025,20.9152154 24.5420357,19.290776 24.3768089,17.6699161 C24.1804362,15.7423141 23.9768009,13.8147121 23.7235835,11.8938561 C23.548161,10.5636304 23.294804,9.24276659 23.0516427,7.92217815 C22.9823676,7.54646028 22.8350182,7.18354628 22.7063844,6.82063227 C22.6581991,6.68447068 22.5957677,6.53288938 22.3992553,6.48965911 C22.3407346,6.59236542 22.2752305,6.68254322 22.2350062,6.78263369 C22.0341642,7.2833614 21.8106961,7.777756 21.6491007,8.29087455 C21.2461596,9.56988483 21.2049577,10.8915747 21.251467,12.2164311 C21.3129207,13.9689092 21.5891833,15.6997722 21.8127911,17.4361422 C22.0996683,19.6636027 22.404004,21.889824 22.6386456,24.1229291 C22.9137908,26.7411141 23.0160275,29.3705885 23.0200778,32.0037802 C23.0207762,32.5302533 23.0626764,33.0605814 23.1368399,33.5820981 C23.2672895,34.5012233 23.5706475,35.3610101 24.2195432,36.0616434 C24.3604678,36.213913 24.4113068,36.3617771 24.4110275,36.5605813 C24.4090721,37.5970064 24.4748555,38.6291636 24.6762562,39.6486545 C24.8263989,40.4093146 25.0493084,41.1471204 25.4719425,41.8093421 C26.0702785,42.7463651 26.9184799,43.2380062 28.0611005,43.2431002 C29.2795607,43.2484696 30.4626849,43.0464988 31.6276524,42.7214458 C33.9235084,42.0808392 36.0484112,41.0656162 38.0749881,39.8383721 C38.1752695,39.7775193 38.2783441,39.7206591 38.3758321,39.6644873 C38.5673164,39.9317164 38.7279341,40.1840766 38.9164854,40.4141332 C39.4648204,41.083101 40.1525437,41.4856657 41.0547964,41.4524858 C41.5200291,41.435414 41.9560714,41.3076506 42.3745155,41.1133898 C43.048691,40.8001768 43.636971,40.3669104 44.1742722,39.8624654 C44.3170125,39.728369 44.4590545,39.5937218 44.6564048,39.4074461 C44.7706529,39.5487017 44.8533361,39.6855517 44.9680032,39.7872943 C45.8379927,40.5580047 46.8125932,40.7188103 47.8842627,40.2457555 C48.3996361,40.018177 48.8478295,39.6909211 49.2496531,39.30295 C49.4634842,39.096436 49.6660023,38.8789079 49.8618162,38.6783139 C50.2827744,39.0521043 50.6922798,39.4158444 51.1150536,39.7911492 C51.0903324,39.8486978 51.0551362,39.9289629 51.0210573,40.0097788 C50.4549845,41.3508809 49.8651683,42.6827588 49.329124,44.0354257 C48.5974054,45.8809729 47.9538171,47.7581855 47.38956,49.6607305 C47.334531,49.8463178 47.2401157,49.9576977 47.0542181,50.026811 C46.4875867,50.237593 45.9134132,50.4095504 45.3071161,50.4658599 C44.1628195,50.5720081 43.2389183,50.036586 42.788211,48.9975451 C42.5250772,48.3909445 42.4201868,47.7535045 42.4125051,47.0976159 C42.4111084,46.9816927 42.4014714,46.8659072 42.3939293,46.7180431 C42.2682285,46.7530128 42.1844279,46.7731135 42.1027224,46.7995473 C41.6679371,46.9401145 41.2346882,47.0853627 40.799065,47.2234518 C38.0030593,48.1100854 35.1914108,48.9417863 32.3131409,49.5331048 C31.1099046,49.7802333 29.9005228,50.0094638 28.6679562,50.0297022 C27.9440591,50.04168 27.2173685,49.99666 26.4950077,49.9396621 C26.0037968,49.9009751 25.5807436,49.6721576 25.2184458,49.3373295 C24.8032141,48.9534887 24.5139625,48.4853902 24.2783432,47.9828727 C23.8784749,47.1294191 23.5953687,46.2343872 23.3995547,45.3185663 C22.9142098,43.0466365 22.4567984,40.769062 21.9863979,38.4941034 C21.4422529,35.8611871 20.796011,33.2538785 19.951441,30.6969593 C19.9187588,30.598108 19.8747635,30.5029738 19.8112147,30.343958 C19.6998996,30.5495083 19.6163784,30.6906262 19.5451479,30.8375266 C19.0628757,31.8303084 18.7750208,32.8791244 18.6516943,33.9699315 C18.5684524,34.708288 18.5921959,35.4392101 18.8515586,36.1538863 C19.0167854,36.6090432 19.1371789,37.0801706 19.2737738,37.5452402 C19.9503236,39.846495 20.4631831,42.1745966 20.4936306,44.5857168 C20.4996363,45.0606991 20.4338529,45.509936 20.1811942,45.9163556 C19.9831455,46.2349379 19.7837002,46.5562738 19.5482206,46.8478716" id="Fill-6"></path>
                <path d="M67.8173885,23.7112672 C67.6587247,23.5941432 67.5798821,23.4510929 67.5835167,23.2555388 C67.5881298,23.0166006 67.5559777,22.7772715 67.5556981,22.5380727 C67.5554185,22.344082 67.4869205,22.2238312 67.2923302,22.118172 C65.5549971,21.1750566 64.0574069,19.9689006 62.7957854,18.5089542 C62.7485358,18.4542356 62.6947159,18.4043373 62.625519,18.3333333 C61.9958964,19.1354831 61.7297328,20.3456778 61.9335493,21.3489838 C62.106332,22.1993381 62.5039,22.9539347 63.1047254,23.6013087 C63.7181321,24.2622322 64.348174,24.9146872 65.0251859,25.5180258 C66.8789657,27.1698784 68.8936459,28.6401171 71.0067396,29.993362 C71.5046782,30.3121635 71.6331469,30.6705708 71.3546816,31.174634 C71.1777051,31.494608 70.9529198,31.8057228 70.687455,32.0657667 C70.2808005,32.4644314 69.8431122,32.8421205 69.3792829,33.1820277 C67.5765271,34.5024415 65.5898052,35.5385787 63.5053689,36.417074 C62.4553923,36.8596439 61.3851458,37.2559634 60.2573051,37.4900812 C59.8345746,37.5778917 59.397725,37.6406878 58.9657682,37.6494168 C58.1307914,37.6664838 57.5647742,37.2773298 57.3015462,36.5383671 C57.214316,36.2938267 57.1592381,36.0332616 57.1346347,35.7763444 C57.0557921,34.9510044 57.153227,34.1334813 57.2993095,33.3196061 C57.3637535,32.9602868 57.4249824,32.6003161 57.4779635,32.2393031 C57.4932008,32.1354679 57.5302456,32.0150868 57.3778725,31.901741 C57.2815559,32.0290271 57.1772712,32.1370313 57.1101711,32.2623631 C57.0057466,32.4575264 56.9118065,32.6598552 56.8392545,32.8670045 C56.1609844,34.8017005 55.7856433,36.7816046 55.838205,38.8230021 C55.8512057,39.3350126 55.9262739,39.8385547 56.0905293,40.330241 C56.3013354,40.9614601 56.7539815,41.3489204 57.4290363,41.5288406 C58.0430022,41.6924755 58.6657749,41.6929966 59.2907843,41.6204293 C60.5459753,41.4749036 61.722883,41.0834045 62.8654018,40.5967992 C65.3455889,39.5405984 67.5762475,38.1283355 69.6107782,36.4436517 C70.7922989,35.4653599 71.8796,34.404469 72.7734291,33.1829397 C73.3114879,32.4478855 73.7537894,31.6703592 74.0209316,30.8086703 C74.3332266,29.8009347 74.1440882,28.8975554 73.4489033,28.0756027 C73.0593034,27.6149236 72.6273466,27.1924172 72.1345803,26.8317951 C71.3172173,26.2336679 70.4784662,25.6612063 69.6560707,25.0690721 C69.037352,24.6235057 68.4305155,24.1637385 67.8173885,23.7112672" id="Fill-7"></path>
                <path d="M11.6893234,32.0382879 C11.7440099,31.8774436 11.816878,31.7231025 11.9070752,31.5035855 C12.200962,31.7530169 12.4542246,31.9479665 12.6844761,32.1677725 C13.3216807,32.7758881 13.9725214,33.3718645 14.5713743,34.0172647 C14.9019082,34.3736366 15.155881,34.8093467 15.4104219,35.2306055 C15.5189427,35.4100921 15.5550216,35.6408812 15.5972083,35.8537505 C15.6452188,36.0962453 15.5523228,36.2911949 15.3200826,36.3864297 C15.0156846,36.5114344 14.7108605,36.640052 14.3969456,36.7347088 C13.8263592,36.9065361 13.239864,36.9696888 12.6448462,36.9193979 C11.9579266,36.8614477 11.5795242,36.5663498 11.4008342,35.8874223 C11.310637,35.5450683 11.2579391,35.1834939 11.2505528,34.8291452 C11.2308089,33.8747737 11.3826528,32.9420794 11.6893234,32.0382879 M8.36182591,28.8630229 C8.85315238,29.2361584 9.35328551,29.5975883 9.84773693,29.9666775 C10.2589512,30.273481 10.6678928,30.5834639 11.1006976,30.9093433 C11.0509825,31.0477879 11.0177445,31.1447568 10.9813815,31.2407142 C10.5873544,32.2763027 10.2637806,33.3345798 10.0275633,34.418436 C9.73168786,35.7758574 9.52757218,37.1438284 9.65498468,38.5415693 C9.69702939,39.0043036 9.78651643,39.4560548 9.9787005,39.8809264 C10.2934676,40.5770511 10.8095096,40.8837101 11.5592121,40.8266271 C11.7063686,40.8153549 11.8542353,40.8130427 12.0012497,40.800181 C13.8578927,40.6377471 15.3006227,39.7775988 16.2774519,38.1506585 C17.0662162,36.8370248 17.38979,35.384224 17.4917768,33.8658138 C17.5433384,33.0972876 17.3514384,32.3949488 16.9437752,31.7602426 C16.6900866,31.3652854 16.4054325,30.9865139 16.0994721,30.6320206 C15.4298818,29.8562687 14.6368561,29.2147703 13.8524951,28.5659018 C13.7223838,28.4582387 13.5949713,28.3472519 13.4543488,28.2277387 C13.5527845,28.026864 13.6340331,27.8504122 13.7245144,27.6787294 C14.110445,26.9456091 14.5034778,26.2162462 14.8838688,25.4800911 C14.9996337,25.2559496 15.0911094,25.0177903 15.1780397,24.7800645 C15.218806,24.6684996 15.2749129,24.5335234 15.1283246,24.4427685 C14.7929613,24.5231184 14.6036181,24.6455218 14.315555,24.9754477 C13.7073272,25.6727284 13.2539262,26.4723253 12.8353257,27.2951888 C12.7738211,27.4164362 12.7069189,27.5347933 12.6300737,27.6778623 C12.5104736,27.5869629 12.4117537,27.5129717 12.3137441,27.4375353 C11.3362047,26.6837495 10.3633527,25.9234605 9.37956345,25.177912 C8.6510253,24.6258679 7.9094192,24.0917436 7.17065396,23.5538619 C7.06667854,23.478281 6.94537389,23.427412 6.77421216,23.3333333 C6.72890047,23.5855105 6.66540728,23.774246 6.66666667,23.9626925 C6.67080492,24.5627152 6.67989566,25.1637496 6.72179832,25.7618937 C6.81114332,27.0409884 7.34309407,28.0892941 8.36182591,28.8630229" id="Fill-8"></path>
                <path d="M55.2009324,20.5637846 C55.7847598,23.4828175 56.4094752,26.3963037 56.973864,29.317694 C57.4712233,31.8914352 57.7986626,34.4815396 57.8576486,37.091058 C57.8604974,37.2175264 57.9008827,37.34344 57.9293702,37.5 C58.2640153,37.4290002 58.3550079,37.2394364 58.4424815,37.0770522 C58.6976965,36.6018253 58.9560954,36.1247957 59.1540001,35.6322349 C59.7676557,34.1050468 60.1049819,32.5412494 59.9707552,30.9233702 C59.8301607,29.2289443 59.5094243,27.5542099 59.1612058,25.8829421 C58.7652287,23.9830053 58.3600351,22.0841778 57.9439492,20.1871531 C57.7648127,19.3701012 57.7808998,18.5782875 58.2308357,17.8167041 C58.295184,17.7075698 58.3402614,17.5905311 58.3896957,17.4755725 C59.0407202,15.9615582 58.9919562,14.4640457 58.1291183,13.0220018 C57.4997108,11.9701792 57.1794772,10.8624721 57.021455,9.70969676 C56.8446646,8.41949805 56.7739484,7.1251392 56.775289,5.8271749 C56.7754565,5.57687302 56.7506556,5.32657115 56.7333955,5 C56.5520806,5.10469691 56.4217081,5.15600532 56.3315533,5.23768278 C56.1971591,5.35971361 56.0728193,5.49464088 55.9761292,5.6385818 C55.1814938,6.82172618 54.636376,8.08543865 54.3871937,9.41834815 C54.1031559,10.9352746 54.1395195,12.4691189 54.2419071,13.9981098 C54.3895397,16.2032624 54.7654079,18.3871983 55.2009324,20.5637846" id="Fill-9"></path>
                <path d="M62.704658,19.1666667 C63.1599093,18.72464 63.5360669,18.2557756 63.8892107,17.7648606 C64.2759494,17.2273782 64.6456261,16.6774199 64.7464109,15.9321982 C65.8947234,16.4780945 66.5906943,17.4702245 67.1587664,18.6277337 C67.2391827,18.5517173 67.2998917,18.5058753 67.3475066,18.4474123 C67.7203576,17.9891379 68.1032607,17.5398578 68.4570658,17.0644652 C68.6561225,16.7969572 68.8165582,16.4920212 68.9750099,16.1917274 C69.2417856,15.6860153 69.2236655,15.1721793 68.960461,14.6699489 C68.4720115,13.7383128 67.7167865,13.1136438 66.9146079,12.5 C66.078702,13.462826 65.3273126,14.4580024 64.6695658,15.5864977 C64.1755613,14.4556813 63.3516915,13.7300439 62.4870844,13.0561963 C61.674986,13.7230805 60.1190372,15.8164327 60,16.3991767 C61.22939,16.9170747 62.0351398,17.9520001 62.704658,19.1666667" id="Fill-10"></path>
                <path d="M43.5674596,25 C44.1079508,24.401609 44.588242,23.8230775 45.0016589,23.1791694 C45.2704649,22.7606726 45.5028892,22.3233312 45.5715957,21.8024933 C45.5736896,21.7877075 45.6019574,21.7771255 45.6401713,21.746974 C46.7600219,22.2685366 47.4537613,23.2748424 48.0134903,24.4374139 C48.0723816,24.3908821 48.1099412,24.3692832 48.138209,24.3378271 C48.6913945,23.7188519 49.2214161,23.0774081 49.6433395,22.338117 C50.145355,21.4582156 50.1197046,20.9069363 49.5518617,20.0779155 C49.5139095,20.0225411 49.4742561,19.9683264 49.4336865,19.9151265 C49.0122866,19.3621077 48.5175998,18.8989635 47.9888869,18.4784373 C47.923583,18.426542 47.850296,18.3871131 47.7671939,18.3333333 C46.9365649,19.2999203 46.1835416,20.3128941 45.5367844,21.4438646 C45.0096419,20.3440603 44.0097987,19.2112053 43.2817715,18.8872219 C42.3741912,19.8799014 41.4960567,20.9098355 40.8333333,22.1841705 C42.0888956,22.7199391 42.8942668,23.746829 43.5674596,25" id="Fill-11"></path>
                <path d="M14.7906122,15.3482486 C13.7806585,16.2833386 12.8146841,17.1990674 12.065779,18.3006891 C13.5764687,18.7845864 14.5440138,19.7209845 15.3458511,20.8333333 C15.9133415,20.3389706 16.3955433,19.8459161 16.8147605,19.3123078 C16.9996307,19.0769655 17.1634537,18.8286722 17.3161248,18.5776317 C17.594294,18.1201597 17.5476445,17.6651733 17.2383756,17.231772 C17.0915161,17.0261254 16.9380597,16.8144613 16.7382679,16.6462288 C16.3160664,16.2905336 15.862137,15.9607404 15.4193594,15.6221824 C15.3295159,15.5535027 15.2308766,15.4929338 15.1160592,15.4150968 C15.306898,15.2239712 15.4837577,15.0503751 15.6563766,14.8736395 C16.1318244,14.3862101 16.5804135,13.8843907 16.9077453,13.3133684 C17.1862287,12.8275089 17.1431918,12.3619262 16.8153888,11.9083788 C16.2386314,11.1101249 15.3892022,10.5473442 14.4672071,10 C13.422384,10.9425466 12.4306503,11.8874479 11.6666667,13.0143176 C13.0856281,13.4749292 14.0362097,14.3146525 14.7906122,15.3482486" id="Fill-12"></path>
                <path d="M44.4635289,19.1666667 C44.895934,18.6273825 45.3158737,18.1511948 45.6772096,17.6386696 C45.9894932,17.1959305 46.2570955,16.7218713 46.5041379,16.2432509 C46.7654265,15.7377196 46.6971094,15.2264107 46.4032811,14.7433812 C46.3074429,14.5858682 46.2017295,14.4320042 46.0848458,14.2877187 C45.5300527,13.6033889 44.8204938,13.0783965 44.0824426,12.5824436 C43.9195824,12.4729751 43.7627121,12.4713027 43.6225163,12.5847242 C43.3301451,12.8209936 43.0210993,13.0476845 42.7729237,13.3213556 C42.1323295,14.027123 41.6586427,14.8374936 41.208106,15.658659 C41.0853943,15.8824612 40.9719102,16.1106725 40.8333333,16.3762855 C42.3780767,16.9107044 43.475845,17.9311936 44.4635289,19.1666667" id="Fill-13"></path>
                <path d="M64.41031,13.3333333 C64.4623979,13.3167484 64.4946273,13.3159806 64.508626,13.3006241 C65.2679705,12.4719906 65.9636701,11.6029696 66.463226,10.6057224 C66.7671266,9.99868234 66.734246,9.42005167 66.3396799,8.86061655 C66.2747327,8.76863147 66.2156455,8.67280729 66.1453267,8.58481488 C65.5676389,7.86152655 64.8436165,7.28535291 64.0764588,6.75171661 C63.9309381,6.65036411 63.7878591,6.63301133 63.6478727,6.73559235 C63.4232435,6.90036696 63.18429,7.05608126 62.9935179,7.252183 C62.1399268,8.12980356 61.5563791,9.17219872 60.9977359,10.2278004 C60.9414158,10.334067 60.8961644,10.4454012 60.8333333,10.5813057 C62.3678115,11.1322948 63.4776103,12.1427485 64.41031,13.3333333" id="Fill-14"></path>
                <path d="M51.7799351,16.6666667 C52.4180955,16.027368 52.9771359,15.386542 53.4587902,14.6864596 C53.6605302,14.3936895 53.8331124,14.0799963 53.9941892,13.7640123 C54.2696904,13.2233727 54.2082228,12.687773 53.8592756,12.2045573 C53.6230192,11.8772718 53.3462571,11.5722838 53.0554678,11.2883717 C52.5309438,10.7767494 51.9225716,10.3669935 51.2886667,10 C50.2857983,11.1895599 49.3180767,12.3372736 48.3333333,13.5052995 C49.8829487,14.1131372 50.8881813,15.3130823 51.7799351,16.6666667" id="Fill-15"></path>
                <path d="M29.5052817,70.8624595 C29.100793,70.2104744 28.6070735,69.6888863 28.0778303,69.2222354 C28.048448,69.1965033 28.0093117,69.1898729 27.9572905,69.1666667 C27.1719153,70.280251 26.4192941,71.4156208 25.8333333,72.7675823 C26.9912862,73.3529481 27.7322267,74.4696898 28.3533499,75.8333333 C28.5614346,75.5158655 28.7524197,75.2370747 28.932808,74.9467598 C29.2857572,74.3784434 29.6151042,73.7894467 29.8555817,73.1219907 C30.0652319,72.5404136 30.0465669,71.9730444 29.799948,71.4219354 C29.7127643,71.2269713 29.6140204,71.0378483 29.5052817,70.8624595" id="Fill-16"></path>
                <path d="M67.7145118,70.1284172 C67.1712843,69.476762 66.4972642,68.9577377 65.7782421,68.4869141 C65.6938,68.4317826 65.5985708,68.3906702 65.490195,68.3333333 C64.37475,69.4523466 63.3233528,70.5896321 62.5,71.9383078 C64.1133333,72.5146689 65.1583257,73.6382503 66.0253322,75 C66.2329823,74.7790012 66.4141705,74.5954918 66.5844031,74.4037915 C67.1778576,73.7349668 67.7526034,73.0549583 68.1459925,72.2577558 C68.4210614,71.6999819 68.3912286,71.1593775 68.0696406,70.6312171 C67.963793,70.4570013 67.8461471,70.286566 67.7145118,70.1284172" id="Fill-17"></path>
                <path d="M34.9822917,70.7302887 C34.498362,70.1824041 33.9053801,69.7434955 33.2890418,69.3338474 C33.20385,69.2772242 33.1089124,69.2338869 32.9859136,69.1666667 C31.8795965,70.2850534 30.8341066,71.4273231 30,72.7913405 C31.6329267,73.377501 32.6579168,74.5083828 33.505802,75.8333333 C33.592338,75.7605773 33.6608947,75.7175563 33.7091197,75.6596679 C34.1989305,75.0736655 34.7023518,74.4966785 35.1654457,73.8924871 C35.382878,73.6087386 35.5369626,73.278015 35.6908791,72.9563068 C35.9024303,72.5139185 35.8743691,72.0580862 35.6332444,71.637841 C35.4497544,71.3178727 35.2292975,71.0099249 34.9822917,70.7302887" id="Fill-18"></path>
                <path d="M36.039942,57.5 C36.7966092,56.774936 37.4707273,56.0688649 37.9733678,55.2523348 C38.0667429,55.1002247 38.1444589,54.9394511 38.2152152,54.7781776 C38.4211044,54.3093518 38.3530546,53.8568532 38.0483772,53.440008 C37.4419222,52.610816 36.5178371,52.1188321 35.521449,51.6666667 C34.3669226,52.6916193 33.3196906,53.7440617 32.5,55.0112577 C34.0218406,55.5035749 35.1303561,56.37825 36.039942,57.5" id="Fill-19"></path>
                <path d="M43.9755054,69.3462734 C43.9130744,69.4411784 43.8575148,69.5171347 43.8121639,69.596816 C43.7587638,69.6901014 43.720088,69.7892171 43.6651173,69.8820166 C43.4882295,70.1809834 43.3541403,70.2394487 43.0033095,70.1783921 C42.5260461,70.0954718 42.3226545,69.9272018 42.3175501,69.6092864 C42.3153905,69.4722735 42.3171575,69.3352606 42.3171575,69.1666667 C41.9722164,69.1873968 41.9411972,69.3639264 41.8457838,69.4871733 C41.6783195,69.7041914 41.5485494,69.9490655 41.341035,70.1353124 C40.8879195,70.5424643 40.2206145,70.5170375 39.7800637,70.1048651 C39.5727457,69.9106825 39.3781887,69.7074304 39.1700853,69.5140576 C39.0837028,69.4335665 38.9774916,69.3674894 38.8094383,69.2418132 C38.643741,69.6653225 38.5102407,70.0185437 38.3663353,70.3686879 C38.2938918,70.5445697 38.3468992,70.6854695 38.4650862,70.8386778 C38.6998896,71.1437988 38.9284106,71.4544262 39.1231639,71.7775241 C39.8189358,72.9307971 40.1173482,74.1671525 40.2125652,75.4433486 C40.2217925,75.5648139 40.2469219,75.6857934 40.2683212,75.8333333 C40.5231497,75.655832 40.5357144,75.6430376 40.6079616,75.4435105 C40.8918459,74.6591682 40.8771216,73.8591164 40.7614869,73.0593885 C40.7029823,72.6532083 40.5847954,72.2528585 40.4929158,71.8473261 C40.7145655,71.774285 40.9322887,71.7294238 41.113103,71.6358145 C41.3068747,71.5355651 41.4657007,71.3894827 41.6547606,71.2527937 C41.7749108,71.3180611 41.8844596,71.3915881 42.007751,71.4421177 C42.8034517,71.7686166 43.6733629,71.7339585 43.9768797,70.8356007 C44.0974226,70.4791403 44.1198035,70.0983869 44.1620131,69.7268649 C44.1765411,69.5992453 44.1677065,69.4473326 43.9755054,69.3462734" id="Fill-20"></path>
                <path d="M49.7620313,69.4148443 C49.6765938,69.5677816 49.601393,69.724782 49.5130025,69.8767441 C49.341143,70.172542 49.1891665,70.2455163 48.8485974,70.1795306 C48.413732,70.095342 48.0928489,69.9084367 48.1465919,69.6116637 C48.1723807,69.4697782 48.1288744,69.3191163 48.1164722,69.1666667 C47.8103537,69.1796688 47.7759031,69.35731 47.682788,69.4811551 C47.5345518,69.6792746 47.423916,69.9017732 47.2463476,70.0789268 C46.7555738,70.5687811 45.9364361,70.5127096 45.5761809,70.0781142 C45.3993999,69.8648797 45.1779316,69.6756991 44.968078,69.4821302 C44.8914992,69.4114313 44.789919,69.3587728 44.6326273,69.2524806 C44.4747449,69.653433 44.34462,69.9957134 44.2038645,70.3352308 C44.1259077,70.5229487 44.1768946,70.673123 44.2971765,70.846051 C44.6261309,71.3178649 44.9576444,71.7929293 45.2196661,72.291235 C45.7454812,73.2912593 45.962028,74.3538563 46.0419535,75.4375818 C46.0515997,75.5698782 46.0807351,75.7015245 46.1008148,75.8333333 C46.4264226,75.6472407 46.4785907,75.3893115 46.5362709,75.1443843 C46.7683697,74.1584997 46.6876568,73.1792787 46.4055553,72.2075339 C46.370711,72.0872644 46.3431505,71.9655322 46.3307482,71.9172619 C46.7624639,71.6936257 47.1272469,71.5042826 47.5465603,71.2869849 C47.6325885,71.3336299 47.7426336,71.4103424 47.8688214,71.4589377 C48.7088263,71.7833402 49.5206801,71.7084156 49.8141995,70.8525521 C49.9407809,70.4831298 49.9571204,70.086078 49.998658,69.699753 C50.0108634,69.5880974 49.9368437,69.4702658 49.8970778,69.3376443 C49.8098685,69.3862397 49.7728587,69.3956662 49.7620313,69.4148443" id="Fill-21"></path>
                <path d="M52.2680417,71.7186851 C52.0920288,71.0365084 51.9514701,70.3350687 51.7924982,69.6435926 C51.7542991,69.4773659 51.7464077,69.2810824 51.6090513,69.1666667 C51.5722247,69.25252 51.5333395,69.3127999 51.5180142,69.3837078 C51.4246896,69.8138046 51.3310219,70.2440675 51.2478761,70.6784819 C50.9874595,72.0413408 50.6553338,73.3560421 50.0669087,74.5061775 C50.0264223,74.5855544 49.9996602,74.7008004 50,74.7991083 C50.0008038,75.1279081 50.0168154,75.4568741 50.0269942,75.785674 L50.1000756,75.8333333 C50.1612626,75.7431625 50.2337721,75.6641176 50.2818068,75.560994 C50.4712008,75.1553081 50.6718029,74.757261 50.8335197,74.3286587 C51.1512349,73.4860675 51.3461185,72.5722363 51.5136682,71.6461167 C51.5276211,71.5690646 51.5564419,71.4976585 51.5743977,71.4375446 C51.7617331,72.198268 51.923793,72.9586592 52.1353744,73.6888274 C52.4146619,74.6536392 52.8254729,75.4897541 53.0755965,75.6830485 C53.154625,75.3560753 53.2294219,75.0335857 53.3111953,74.7145834 C53.3579719,74.5317508 53.3281218,74.3905993 53.2452047,74.2409788 C52.8235287,73.4795912 52.503183,72.6300254 52.2680417,71.7186851" id="Fill-22"></path>
                <path d="M37.3806642,69.5496937 C37.3230817,69.4363473 37.2511665,69.3350762 37.1481969,69.1666667 C36.9724321,69.6012148 36.8219382,69.9731326 36.6666667,70.3566426 C36.7267637,70.4809372 36.7672474,70.5694891 36.8112515,70.6551429 C37.2853639,71.5797852 37.6220579,72.5796162 37.7769523,73.668965 C37.8560339,74.2242656 37.8906085,74.7898705 37.95322,75.3491962 C37.9703187,75.5023104 37.9308408,75.6831172 38.0685107,75.8333333 C38.1117604,75.7433324 38.1616736,75.6779651 38.1768864,75.6011665 C38.2240336,75.3649745 38.271558,75.1268505 38.2948173,74.8855065 C38.3985412,73.8100039 38.2814904,72.7573639 38.078443,71.714706 C37.9290806,70.948491 37.7186154,70.2151206 37.3806642,69.5496937" id="Fill-23"></path>
            </g>
        </g>
    </g>
</svg>